<svg width="547" height="229" viewBox="0 0 547 229" fill="none" xmlns="http://www.w3.org/2000/svg">
<path d="M11.4 181V45.72H70.68C102.41 45.72 124.26 67.57 124.26 95.5C124.26 113.36 115.33 127.61 100.7 136.92L131.48 181H93.86L70.87 147.56H43.7V181H11.4ZM69.16 75.17H43.7V118.11H69.16C81.7 118.11 91.01 108.99 91.01 96.64C91.01 84.1 81.7 75.17 69.16 75.17ZM161.789 77.26V130.65C161.789 141.29 169.579 148.51 180.599 148.51C191.429 148.51 199.409 141.29 199.599 130.65V77.26H230.949V173.02C230.949 204.18 205.869 221.28 175.279 221.28C159.509 221.28 144.499 217.29 132.719 207.03L148.869 184.99C156.469 191.26 165.209 194.11 174.139 194.11C189.909 194.11 200.739 186.89 200.739 175.87V166.75C194.089 173.21 184.779 177.01 173.569 177.01C149.439 177.01 130.439 159.91 130.439 134.83V77.26H161.789ZM237.984 129.13C237.984 98.92 259.454 74.98 289.094 74.98C302.014 74.98 312.274 79.35 319.684 86.76V38.88H351.034V181H320.824V170.36C313.224 178.34 302.774 183.28 289.094 183.28C259.454 183.28 237.984 158.96 237.984 129.13ZM270.284 129.13C270.284 144.14 280.924 155.16 295.554 155.16C309.994 155.16 320.824 144.14 320.824 129.13C320.824 114.12 309.994 103.1 295.554 103.1C280.924 103.1 270.284 114.12 270.284 129.13ZM413.9 74.98C446.39 74.98 468.05 97.97 468.05 128.75C468.05 132.74 467.48 137.68 466.91 140.72H390.53C394.9 150.79 405.16 156.68 417.7 156.68C428.34 156.68 437.46 152.12 443.73 146.61L460.07 164.85C450.38 176.06 434.8 183.28 416.75 183.28C383.5 183.28 358.04 160.48 358.04 129.13C358.04 97.97 382.36 74.98 413.9 74.98ZM414.28 100.82C401.93 100.82 392.81 106.9 389.39 118.49H436.7C435.18 108.99 427.58 100.82 414.28 100.82Z" fill="black"/>
<circle cx="510.985" cy="101.805" r="25.4514" fill="black"/>
<circle cx="510.985" cy="161.589" r="25.4514" fill="black"/>
<path d="M247.858 197.796V207.631C247.858 209.591 249.293 210.921 251.323 210.921C253.318 210.921 254.788 209.591 254.823 207.631V197.796H260.598V215.436C260.598 221.176 255.978 224.326 250.343 224.326C247.438 224.326 244.673 223.591 242.503 221.701L245.478 217.641C246.878 218.796 248.488 219.321 250.133 219.321C253.038 219.321 255.033 217.991 255.033 215.961V214.281C253.808 215.471 252.093 216.171 250.028 216.171C245.583 216.171 242.083 213.021 242.083 208.401V197.796H247.858ZM263.643 207.351C263.643 201.541 268.368 197.376 274.213 197.376C280.058 197.376 284.783 201.541 284.783 207.351C284.783 213.196 280.058 217.326 274.213 217.326C268.368 217.326 263.643 213.196 263.643 207.351ZM269.593 207.351C269.593 210.186 271.553 212.146 274.213 212.146C276.873 212.146 278.833 210.186 278.833 207.351C278.833 204.516 276.873 202.556 274.213 202.556C271.553 202.556 269.593 204.516 269.593 207.351ZM296.489 212.146C298.414 212.146 299.814 210.816 299.814 208.856V197.796H305.589V208.856C305.589 213.966 301.494 217.326 296.489 217.326C291.484 217.326 287.389 213.966 287.389 208.856V197.796H293.164V208.856C293.164 210.816 294.564 212.146 296.489 212.146ZM315.092 207.456V216.906H309.317V197.796H314.882V199.756C316.072 198.181 317.682 197.621 319.362 197.621C320.587 197.621 321.637 197.971 322.512 198.461L321.392 203.431C320.797 203.291 320.027 203.151 319.327 203.151C316.982 203.151 315.092 204.411 315.092 207.456ZM337.017 207.456V216.906H331.242V197.796H336.807V199.756C337.997 198.181 339.607 197.621 341.287 197.621C342.512 197.621 343.562 197.971 344.437 198.461L343.317 203.431C342.722 203.291 341.952 203.151 341.252 203.151C338.907 203.151 337.017 204.411 337.017 207.456ZM352.646 206.126V216.906H346.871V190.726H352.646V199.266C353.906 198.041 355.586 197.376 357.686 197.376C362.131 197.376 365.351 200.596 365.351 205.286V216.906H359.576V205.951C359.576 203.956 358.141 202.556 356.216 202.556C354.221 202.556 352.646 203.991 352.646 206.126ZM374.448 197.796V207.631C374.448 209.591 375.883 210.921 377.913 210.921C379.908 210.921 381.378 209.591 381.413 207.631V197.796H387.188V215.436C387.188 221.176 382.568 224.326 376.933 224.326C374.028 224.326 371.263 223.591 369.093 221.701L372.068 217.641C373.468 218.796 375.078 219.321 376.723 219.321C379.628 219.321 381.623 217.991 381.623 215.961V214.281C380.398 215.471 378.683 216.171 376.618 216.171C372.173 216.171 368.673 213.021 368.673 208.401V197.796H374.448ZM392.824 202.871H389.814V197.796H392.964V192.686H398.599V197.796H404.969V202.871H398.599V209.941C398.599 211.411 399.474 212.076 400.734 212.076C401.679 212.076 402.449 211.691 402.939 211.131L405.984 214.456C404.724 216.276 402.344 217.326 399.684 217.326C395.554 217.326 392.824 214.736 392.824 210.606V202.871ZM413.818 206.126V216.906H408.043V190.726H413.818V199.266C415.078 198.041 416.758 197.376 418.858 197.376C423.303 197.376 426.523 200.596 426.523 205.286V216.906H420.748V205.951C420.748 203.956 419.313 202.556 417.388 202.556C415.393 202.556 413.818 203.991 413.818 206.126ZM436.145 205.706V216.906H430.37V197.796H435.935V199.406C437.125 198.111 438.77 197.376 440.765 197.376C443.11 197.376 445.07 198.391 446.295 200.106C447.66 198.391 449.655 197.376 452.035 197.376C456.27 197.376 459.385 200.491 459.385 205.006V216.906H453.61V205.461C453.61 203.676 452.49 202.556 450.81 202.556C449.06 202.556 447.765 203.851 447.765 205.706V216.906H441.99V205.461C441.99 203.676 440.87 202.556 439.19 202.556C437.44 202.556 436.145 203.851 436.145 205.706Z" fill="black"/>
</svg>
